<svg width="27" height="27" viewBox="0 0 27 27" fill="none" xmlns="http://www.w3.org/2000/svg">
<path d="M9.00108 13.5C9.00108 11.0148 11.0153 8.99964 13.5005 8.99964C15.9858 8.99964 18.0011 11.0148 18.0011 13.5C18.0011 15.9852 15.9858 18.0004 13.5005 18.0004C11.0153 18.0004 9.00108 15.9852 9.00108 13.5ZM6.56817 13.5C6.56817 17.3286 9.67179 20.4321 13.5005 20.4321C17.3293 20.4321 20.4329 17.3286 20.4329 13.5C20.4329 9.6714 17.3293 6.56791 13.5005 6.56791C9.67179 6.56791 6.56817 9.6714 6.56817 13.5ZM19.0873 6.29305C19.0869 7.18775 19.812 7.91334 20.7067 7.9137C21.6014 7.91406 22.3271 7.18905 22.3274 6.29435C22.3278 5.39965 21.6027 4.67406 20.708 4.6737H20.7073C19.813 4.67412 19.0881 5.39878 19.0873 6.29305ZM8.04632 24.4887C6.73007 24.4287 6.01465 24.2095 5.53922 24.0243C4.9089 23.7789 4.45917 23.4867 3.98633 23.0145C3.51349 22.5423 3.2208 22.093 2.97649 21.4627C2.79116 20.9875 2.57191 20.2719 2.51207 18.9557C2.44662 17.5327 2.43355 17.1053 2.43355 13.5001C2.43355 9.89496 2.4477 9.46868 2.51207 8.04449C2.57201 6.72829 2.79288 6.01409 2.97649 5.53748C3.22188 4.9072 3.51414 4.45748 3.98633 3.98466C4.45853 3.51184 4.90782 3.21916 5.53922 2.97486C6.01444 2.78953 6.73007 2.57029 8.04632 2.51046C9.46939 2.44501 9.89687 2.43194 13.5005 2.43194C17.1042 2.43194 17.5321 2.44609 18.9564 2.51046C20.2726 2.5704 20.9869 2.79126 21.4635 2.97486C22.0938 3.21916 22.5435 3.51248 23.0164 3.98466C23.4892 4.45684 23.7808 4.9072 24.0262 5.53748C24.2115 6.01268 24.4308 6.72829 24.4906 8.04449C24.5561 9.46868 24.5691 9.89496 24.5691 13.5001C24.5691 17.1053 24.5561 17.5315 24.4906 18.9557C24.4307 20.2719 24.2104 20.9873 24.0262 21.4627C23.7808 22.093 23.4886 22.5427 23.0164 23.0145C22.5442 23.4862 22.0938 23.7789 21.4635 24.0243C20.9883 24.2096 20.2726 24.4288 18.9564 24.4887C17.5333 24.5541 17.1058 24.5672 13.5005 24.5672C9.89525 24.5672 9.46896 24.5541 8.04632 24.4887ZM7.93454 0.081756C6.49732 0.147204 5.51524 0.375084 4.65758 0.708804C3.76935 1.05343 3.01742 1.51578 2.26604 2.26595C1.51465 3.01612 1.05347 3.7692 0.708832 4.65739C0.375099 5.51556 0.14721 6.49706 0.0817593 7.93422C0.0152286 9.37364 0 9.83383 0 13.5C0 17.1662 0.0152286 17.6264 0.0817593 19.0658C0.14721 20.503 0.375099 21.4844 0.708832 22.3426C1.05347 23.2303 1.51476 23.9842 2.26604 24.7341C3.01732 25.4839 3.76935 25.9456 4.65758 26.2912C5.51686 26.6249 6.49732 26.8528 7.93454 26.9182C9.37477 26.9837 9.83423 27 13.5005 27C17.1669 27 17.6271 26.9848 19.0665 26.9182C20.5039 26.8528 21.4853 26.6249 22.3435 26.2912C23.2312 25.9456 23.9837 25.4842 24.735 24.7341C25.4864 23.9839 25.9466 23.2303 26.2922 22.3426C26.626 21.4844 26.8549 20.5029 26.9193 19.0658C26.9848 17.6253 27 17.1662 27 13.5C27 9.83383 26.9848 9.37364 26.9193 7.93422C26.8539 6.49696 26.626 5.51502 26.2922 4.65739C25.9466 3.76974 25.4852 3.0173 24.735 2.26595C23.9848 1.51459 23.2312 1.05343 22.3446 0.708804C21.4853 0.375084 20.5038 0.146124 19.0676 0.081756C17.6281 0.016308 17.1679 0 13.5016 0C9.83531 0 9.37477 0.015228 7.93454 0.081756Z" fill="url(#paint0_radial_104_206)"/>
<defs>
<radialGradient id="paint0_radial_104_206" cx="0" cy="0" r="1" gradientUnits="userSpaceOnUse" gradientTransform="translate(3.58725 27.1275) scale(35.2476)">
<stop offset="0.09" stop-color="#FA8F21"/>
<stop offset="0.78" stop-color="#D82D7E"/>
</radialGradient>
</defs>
</svg>
