<svg width="30" height="27" viewBox="0 0 30 27" fill="none" xmlns="http://www.w3.org/2000/svg">
<path d="M28.1804 2.91106C28.1804 2.91106 26.7028 4.10266 24.6294 4.31715C24.6294 4.31715 21.3644 0.6708 16.6932 3.84053C14.596 5.31811 14.4053 8.44019 14.7628 9.5603C14.7628 9.5603 8.42341 10.0608 2.89427 3.57839C2.89427 3.57839 0.415726 7.86822 4.51486 11.3001C4.51486 11.3001 3.3033 11.4907 2.15162 10.5375C2.15162 10.5375 1.60727 14.9703 6.56442 16.2096C6.56442 16.2096 6.23079 16.7816 4.22887 16.2096C4.22887 16.2096 4.5625 19.8321 9.28131 20.3564C9.28131 20.3564 6.73207 22.978 1 22.6443C1 22.6443 10.473 29.7464 20.7209 21.1667C26.4406 16.3049 26.25 9.29822 26.1546 8.24961C26.1546 8.24961 28.4134 6.53368 29 5.43737C29 5.43737 27.251 6.00935 25.821 6.00935C25.821 6.00923 27.7276 5.00827 28.1804 2.91106V2.91106Z" stroke="#61B2E4" stroke-width="1.24096" stroke-miterlimit="10" stroke-linecap="round" stroke-linejoin="round"/>
</svg>
