<svg width="25" height="16" viewBox="0 0 25 16" fill="none" xmlns="http://www.w3.org/2000/svg">
<path d="M7.40422 0C8.15348 0 8.83658 0.0660454 9.45363 0.198386C10.0707 0.330602 10.5995 0.547502 11.0402 0.848334C11.4809 1.14954 11.8225 1.54994 12.0649 2.04954C12.3073 2.54913 12.4286 3.16605 12.4286 3.90056C12.4286 4.69398 12.2486 5.35506 11.8887 5.8838C11.5286 6.41266 10.9962 6.84596 10.2911 7.18394C11.2606 7.46313 11.9841 7.95185 12.4617 8.64933C12.9388 9.34731 13.1781 10.1885 13.1781 11.1726C13.1781 11.9659 13.0238 12.6528 12.7151 13.2332C12.4068 13.8138 11.9915 14.2875 11.4703 14.6542C10.9487 15.0217 10.3536 15.2933 9.68529 15.4699C9.01277 15.6465 8.3202 15.7353 7.62487 15.7341L0 15.7341V0L7.40422 0ZM6.96354 6.36876C7.58059 6.36876 8.08731 6.22191 8.48409 5.92795C8.88073 5.63425 9.079 5.15667 9.079 4.49559C9.079 4.12847 9.01295 3.82713 8.88074 3.5921C8.74852 3.35718 8.57227 3.17318 8.35187 3.04122C8.13147 2.90888 7.87805 2.81744 7.5916 2.76565C7.29697 2.71362 6.9983 2.68784 6.69911 2.6886L3.45976 2.68858V6.36888H6.96354V6.36876ZM7.1618 13.0456C7.49953 13.0456 7.82288 13.0125 8.13134 12.9464C8.43981 12.8802 8.71149 12.77 8.94678 12.6157C9.18157 12.4617 9.36895 12.2522 9.50867 11.9876C9.64814 11.7233 9.71794 11.3855 9.71794 10.9739C9.71794 10.1662 9.49003 9.5896 9.03484 9.24424C8.57928 8.899 7.97699 8.72625 7.22785 8.72625H3.45976V13.0454L7.1618 13.0456ZM17.5319 12.7151C18.002 13.1709 18.6779 13.3982 19.5593 13.3982C20.1908 13.3982 20.7345 13.2406 21.1898 12.9245C21.6453 12.609 21.9245 12.2746 22.0273 11.9218H24.7818C24.3412 13.288 23.6652 14.2652 22.7545 14.8526C21.8434 15.4404 20.7415 15.7341 19.4489 15.7341C18.5528 15.7341 17.7446 15.5909 17.0248 15.3043C16.3048 15.018 15.695 14.6102 15.196 14.0813C14.6964 13.5526 14.3107 12.9213 14.0389 12.1864C13.767 11.452 13.6314 10.6438 13.6314 9.76234C13.6314 8.91051 13.7706 8.11721 14.05 7.38258C14.3289 6.6482 14.7254 6.01276 15.2401 5.47627C15.754 4.94027 16.3675 4.51786 17.0801 4.20927C17.7925 3.90068 18.5822 3.74658 19.449 3.74658C20.4187 3.74658 21.2633 3.93383 21.9834 4.30846C22.703 4.68297 23.2944 5.18669 23.7573 5.81788C24.22 6.44969 24.554 7.16968 24.7602 7.97736C24.9658 8.78554 25.039 9.63013 24.9806 10.5116H16.7609C16.8048 11.5251 17.0615 12.2599 17.5319 12.7151ZM21.0687 6.72125C20.6942 6.31009 20.1247 6.1042 19.3611 6.1042C18.8615 6.1042 18.4466 6.18888 18.1161 6.35762C17.7855 6.52687 17.5209 6.73576 17.3225 6.98568C17.1244 7.2356 16.9846 7.50016 16.904 7.77898C16.8231 8.05817 16.7753 8.30797 16.7607 8.52824H21.851C21.7042 7.73482 21.4435 7.13266 21.0687 6.72125ZM16.2263 0.798925H22.5864V2.56239H16.2263V0.798925Z" fill="#1769FF"/>
</svg>
