<svg width="25" height="25" viewBox="0 0 25 25" fill="none" xmlns="http://www.w3.org/2000/svg">
<path d="M23.3844 11.5167C23.3839 11.2533 23.3339 10.9933 23.2242 10.75L23.2217 10.7467L23.2205 10.7433C23.0739 10.38 22.8439 10.1067 22.5667 9.91998C22.2895 9.73335 21.965 9.63667 21.6394 9.63667C21.3456 9.63667 21.0525 9.71667 20.7928 9.87335C21.6189 10.7333 22.3439 11.77 22.8125 12.9867C22.9634 12.83 23.0919 12.6367 23.1881 12.4233C23.3133 12.1433 23.3844 11.8267 23.3844 11.5167ZM21.7419 15.82C21.7419 14.7367 21.4172 13.6533 20.8908 12.7767C19.8416 11.0267 18.2139 9.88331 16.5208 9.24664L16.5089 9.24C16.1839 9.12001 15.8556 9.01669 15.5247 8.92333C14.535 8.65338 13.5205 8.52002 12.507 8.52002C11.1458 8.52002 9.78525 8.76001 8.48192 9.24332C6.78915 9.89003 5.15638 11.0234 4.10918 12.78V12.7833C3.57863 13.66 3.26777 14.75 3.26777 15.8334C3.26777 16.2333 3.30946 16.6333 3.39721 17.0234H3.39833C3.5889 17.8934 3.96169 18.6734 4.44389 19.3533C4.92609 20.03 5.51751 20.61 6.14002 21.0833C6.27777 21.1867 6.4161 21.2833 6.55747 21.38C8.36473 22.59 10.4458 23.12 12.5119 23.12C12.8614 23.12 13.2128 23.1067 13.56 23.0766C15.6408 22.87 17.73 22.1334 19.4189 20.6267H19.4194C19.9572 20.15 20.4553 19.57 20.8492 18.9134C21.2444 18.2567 21.5341 17.5234 21.6628 16.7267V16.7234H21.6633C21.7167 16.4233 21.7419 16.1233 21.7419 15.82ZM4.20305 9.88663C3.93389 9.73667 3.65557 9.62995 3.38054 9.62995C3.33443 9.62995 3.28779 9.63335 3.24168 9.63999H3.23496H3.22857C2.83359 9.65335 2.43498 9.85999 2.13585 10.1933C1.83638 10.5234 1.6383 10.9667 1.62334 11.4599V11.4633L1.62275 11.4667C1.61998 11.5067 1.61886 11.5467 1.61886 11.5833C1.61886 11.8867 1.6964 12.18 1.82775 12.4467C1.92498 12.6466 2.05252 12.8266 2.19665 12.9833C2.6583 11.77 3.37942 10.7433 4.20305 9.88663ZM19.0647 3.40995C19.0647 3.44331 19.0653 3.47667 19.0681 3.50995V3.51335V3.51667C19.0809 3.93666 19.2458 4.32661 19.497 4.61664C19.7495 4.90335 20.0842 5.08327 20.4236 5.08327H20.428H20.4325L20.5056 5.08667C20.8486 5.08667 21.1886 4.90999 21.4442 4.62328C21.7003 4.33333 21.8692 3.93998 21.8825 3.51667H21.8831V3.51335C21.8853 3.47999 21.8864 3.44995 21.8864 3.41667C21.8864 2.98 21.7167 2.56665 21.4508 2.25662C21.1861 1.94999 20.8294 1.75996 20.478 1.75996C20.3647 1.75996 20.2522 1.78003 20.1422 1.82003L20.1389 1.82327H20.1356C19.8458 1.91331 19.5747 2.12667 19.3795 2.4133C19.1836 2.69669 19.0647 3.04664 19.0647 3.40995ZM24.995 11.3167V11.32C24.9989 11.3867 25 11.45 25 11.5167C25 12.2433 24.8053 12.9467 24.4803 13.54C24.177 14.0966 23.7586 14.5633 23.2769 14.8766C23.3078 15.1667 23.3259 15.46 23.3259 15.75C23.3253 17.32 22.8744 18.8634 22.0891 20.1H22.0878C20.6364 22.4167 18.4077 23.7834 16.1572 24.4701H16.1567L16.155 24.4734C14.955 24.8233 13.7175 25 12.4806 25C10.6364 25 8.79331 24.6033 7.07419 23.7734H7.07359H7.07195C5.28919 22.89 3.59055 21.49 2.54888 19.4367C1.98835 18.34 1.68085 17.0533 1.68085 15.7633C1.68085 15.47 1.69693 15.1767 1.72973 14.89C1.26024 14.57 0.853865 14.1234 0.552226 13.5867C0.229968 13.0066 0.0260863 12.3333 0 11.6199V11.6166V11.6134V11.6067C0.000526995 10.6067 0.362507 9.65999 0.925008 8.96333C1.48751 8.26335 2.2558 7.80668 3.08002 7.80668H3.11415C3.20024 7.79996 3.28779 7.79664 3.37501 7.79664C3.78916 7.79664 4.20417 7.87664 4.59803 8.06003H4.60027H4.60218C4.93861 8.22999 5.27279 8.43662 5.5708 8.72002C5.66718 8.65994 5.77251 8.58998 5.89082 8.53662C7.69637 7.25333 9.795 6.75999 11.8403 6.61667C11.8581 5.40002 11.9825 4.12662 12.4767 3.01328C12.8883 2.08667 13.6025 1.36661 14.453 1.11665H14.4564H14.4608C14.7847 1.03997 15.1111 1.00662 15.4356 1.00662C16.3 1.00662 17.1539 1.24993 17.953 1.63332C18.3067 0.993256 18.812 0.493268 19.4042 0.213275L19.4097 0.209955L19.4153 0.206635C19.7628 0.076599 20.1303 0 20.4992 0C20.8881 0 21.2797 0.0866384 21.6473 0.283313V0.279993L21.6483 0.283313L21.6553 0.286633C22.182 0.530026 22.6275 0.979976 22.9433 1.53664C23.2595 2.09995 23.4456 2.77329 23.4456 3.46331C23.4456 3.58995 23.4397 3.71666 23.4272 3.84662L23.4261 3.85002L23.4255 3.85666C23.3636 4.75 22.9867 5.5333 22.4528 6.08996C21.9156 6.65335 21.2203 6.99334 20.5061 6.99334C20.3917 6.99334 20.2761 6.9833 20.1611 6.96662C19.453 6.89998 18.7928 6.48995 18.3077 5.87661C17.8211 5.26667 17.5075 4.44993 17.5075 3.57003C17.5075 3.53003 17.5109 3.48331 17.5119 3.44331C16.8472 3.08664 16.1414 2.79329 15.44 2.79329C15.3386 2.79329 15.2372 2.80001 15.1356 2.81329H15.1344C14.6094 2.87329 14.1211 3.26996 13.8844 3.83998V3.8433C13.5253 4.68336 13.4539 5.66334 13.4431 6.63999C15.4564 6.79667 17.4817 7.37665 19.2578 8.60002H19.2606L19.2861 8.61994C19.3197 8.64334 19.382 8.68334 19.4386 8.72002C19.5606 8.60002 19.6897 8.48002 19.8367 8.3733C20.3755 7.94336 21.0133 7.73 21.6514 7.73C21.9347 7.73 22.2183 7.77332 22.4936 7.85664H22.4945L22.5059 7.86004L22.5164 7.86336C23.1661 8.06335 23.7544 8.50998 24.1969 9.11337C24.6391 9.71999 24.937 10.4834 24.995 11.3167ZM8.13002 16.0267H8.13747C8.29636 16.0967 8.46025 16.13 8.6225 16.13C9.02723 16.13 9.42057 15.9334 9.71832 15.61C10.0158 15.2833 10.2192 14.8233 10.2192 14.3L10.2186 14.2566L10.2203 14.18C10.2203 13.66 10.0194 13.1967 9.72497 12.8734C9.4292 12.5433 9.03691 12.3433 8.63054 12.3433C8.52224 12.3433 8.41137 12.36 8.3036 12.39H8.29919H8.29747C7.76 12.5267 7.28775 13.0033 7.11358 13.6633L7.11305 13.6667C7.06332 13.8467 7.04 14.0333 7.04 14.2166C7.04 14.6233 7.15113 15.0134 7.34276 15.34C7.53248 15.6567 7.80164 15.9066 8.12442 16.0233L8.13002 16.0267ZM16.875 18.45C16.7469 18.35 16.5989 18.29 16.4419 18.29C16.3156 18.29 16.1844 18.3334 16.0678 18.4266C14.963 19.2167 13.6636 19.65 12.3742 19.65C11.4064 19.65 10.4445 19.4066 9.57307 18.8934L9.56859 18.89L9.56444 18.8866C9.43302 18.8233 9.28335 18.6867 9.11998 18.5567C9.03691 18.49 8.95029 18.4266 8.85418 18.38C8.75919 18.33 8.65386 18.2967 8.54108 18.2967C8.4478 18.2967 8.34971 18.3233 8.25308 18.3734L8.23832 18.38H8.23885C8.08694 18.45 7.9683 18.58 7.89162 18.73C7.81192 18.8866 7.77279 19.0667 7.77279 19.2466C7.77279 19.41 7.805 19.5733 7.87114 19.72C7.93418 19.8601 8.03108 19.9834 8.15808 20.0634C9.4039 21.0733 10.8703 21.53 12.3428 21.5267C13.6703 21.5267 15.0055 21.16 16.1947 20.4867L16.2011 20.4834L16.2072 20.48C16.3639 20.3667 16.5722 20.2667 16.7686 20.1234C16.8658 20.0467 16.9608 19.9634 17.0422 19.85C17.1236 19.74 17.1891 19.6034 17.2261 19.44C17.2411 19.3666 17.2489 19.2967 17.2489 19.23C17.2489 19.0967 17.2217 18.97 17.1767 18.8567C17.1094 18.69 17.0014 18.55 16.875 18.45ZM17.8744 13.6167C17.9389 13.8133 17.9683 14.02 17.9683 14.2234C17.9683 14.63 17.8506 15.0301 17.6531 15.3534C17.4578 15.6734 17.1811 15.92 16.8555 16.03H16.8561L16.8489 16.0333H16.8447C16.6922 16.0967 16.5359 16.1266 16.3809 16.1266C16.0172 16.1266 15.6603 15.97 15.375 15.7C15.0917 15.4334 14.8775 15.05 14.81 14.5967H14.8094L14.8092 14.59L14.808 14.5867H14.8092C14.7878 14.47 14.7769 14.3533 14.7769 14.2367C14.7769 13.8434 14.8889 13.4633 15.0733 13.1533C15.2572 12.84 15.5164 12.5934 15.8197 12.4666H15.8219H15.8247C15.9967 12.39 16.1778 12.35 16.3569 12.35C16.6836 12.35 17.0053 12.47 17.2764 12.6866C17.5445 12.9 17.7619 13.2133 17.8711 13.6034L17.8733 13.61L17.8755 13.6167H17.8744Z" fill="#FF3232"/>
</svg>
